<svg xmlns="http://www.w3.org/2000/svg" viewBox="0 0 200 200" width="200" height="200" role="img" aria-labelledby="title desc">
  <title id="title">Dichter Mandala-Lotus in Rosa</title>
  <desc id="desc">Symmetrische, dichte Lotusblüte im Mandala-Stil mit zart rosa Blütenblättern und gelber Mitte.</desc>

  <defs>
    <!-- Farbverlauf für die Blüten -->
    <linearGradient id="petalGrad" x1="0" y1="0" x2="0" y2="1">
      <stop offset="0%" stop-color="#ffffff"></stop>
      <stop offset="100%" stop-color="#f8cce0"></stop>
    </linearGradient>
  </defs>

  <style>
    :root{
      --petal-stroke:#d9b6c4;
      --center:#ffcc66;
    }
  </style>

  <!-- äußere Blütenblätter -->
  <g fill="url(#petalGrad)" stroke="var(--petal-stroke)" stroke-width="1">
    <path id="outerPetal" d="M100,15 C120,70 80,110 100,160 C120,110 80,70 100,15Z"></path>
    <!-- 24 äußere Blätter, alle 15° -->
    <use href="#outerPetal" transform="rotate(15,100,100)"></use>
    <use href="#outerPetal" transform="rotate(30,100,100)"></use>
    <use href="#outerPetal" transform="rotate(45,100,100)"></use>
    <use href="#outerPetal" transform="rotate(60,100,100)"></use>
    <use href="#outerPetal" transform="rotate(75,100,100)"></use>
    <use href="#outerPetal" transform="rotate(90,100,100)"></use>
    <use href="#outerPetal" transform="rotate(105,100,100)"></use>
    <use href="#outerPetal" transform="rotate(120,100,100)"></use>
    <use href="#outerPetal" transform="rotate(135,100,100)"></use>
    <use href="#outerPetal" transform="rotate(150,100,100)"></use>
    <use href="#outerPetal" transform="rotate(165,100,100)"></use>
    <use href="#outerPetal" transform="rotate(180,100,100)"></use>
    <use href="#outerPetal" transform="rotate(195,100,100)"></use>
    <use href="#outerPetal" transform="rotate(210,100,100)"></use>
    <use href="#outerPetal" transform="rotate(225,100,100)"></use>
    <use href="#outerPetal" transform="rotate(240,100,100)"></use>
    <use href="#outerPetal" transform="rotate(255,100,100)"></use>
    <use href="#outerPetal" transform="rotate(270,100,100)"></use>
    <use href="#outerPetal" transform="rotate(285,100,100)"></use>
    <use href="#outerPetal" transform="rotate(300,100,100)"></use>
    <use href="#outerPetal" transform="rotate(315,100,100)"></use>
    <use href="#outerPetal" transform="rotate(330,100,100)"></use>
    <use href="#outerPetal" transform="rotate(345,100,100)"></use>
  </g>

  <!-- mittlere Blütenblätter -->
  <g fill="url(#petalGrad)" stroke="var(--petal-stroke)" stroke-width="0.9">
    <path id="midPetal" d="M100,40 C115,80 85,110 100,140 C115,110 85,80 100,40Z"></path>
    <!-- 18 mittlere Blätter, alle 20° -->
    <use href="#midPetal" transform="rotate(20,100,100)"></use>
    <use href="#midPetal" transform="rotate(40,100,100)"></use>
    <use href="#midPetal" transform="rotate(60,100,100)"></use>
    <use href="#midPetal" transform="rotate(80,100,100)"></use>
    <use href="#midPetal" transform="rotate(100,100,100)"></use>
    <use href="#midPetal" transform="rotate(120,100,100)"></use>
    <use href="#midPetal" transform="rotate(140,100,100)"></use>
    <use href="#midPetal" transform="rotate(160,100,100)"></use>
    <use href="#midPetal" transform="rotate(180,100,100)"></use>
    <use href="#midPetal" transform="rotate(200,100,100)"></use>
    <use href="#midPetal" transform="rotate(220,100,100)"></use>
    <use href="#midPetal" transform="rotate(240,100,100)"></use>
    <use href="#midPetal" transform="rotate(260,100,100)"></use>
    <use href="#midPetal" transform="rotate(280,100,100)"></use>
    <use href="#midPetal" transform="rotate(300,100,100)"></use>
    <use href="#midPetal" transform="rotate(320,100,100)"></use>
    <use href="#midPetal" transform="rotate(340,100,100)"></use>
    <use href="#midPetal" transform="rotate(360,100,100)"></use>
  </g>

  <!-- innere Blütenblätter -->
  <g fill="url(#petalGrad)" stroke="var(--petal-stroke)" stroke-width="0.7">
    <path id="innerPetal" d="M100,65 C110,90 90,110 100,125 C110,110 90,90 100,65Z"></path>
    <!-- 12 innere Blätter, alle 30° -->
    <use href="#innerPetal" transform="rotate(30,100,100)"></use>
    <use href="#innerPetal" transform="rotate(60,100,100)"></use>
    <use href="#innerPetal" transform="rotate(90,100,100)"></use>
    <use href="#innerPetal" transform="rotate(120,100,100)"></use>
    <use href="#innerPetal" transform="rotate(150,100,100)"></use>
    <use href="#innerPetal" transform="rotate(180,100,100)"></use>
    <use href="#innerPetal" transform="rotate(210,100,100)"></use>
    <use href="#innerPetal" transform="rotate(240,100,100)"></use>
    <use href="#innerPetal" transform="rotate(270,100,100)"></use>
    <use href="#innerPetal" transform="rotate(300,100,100)"></use>
    <use href="#innerPetal" transform="rotate(330,100,100)"></use>
    <use href="#innerPetal" transform="rotate(360,100,100)"></use>
  </g>

  <!-- Mitte -->
  <circle cx="100" cy="100" r="14" fill="var(--center)" stroke="#d9a441" stroke-width="1"></circle>
</svg>
